# xmcd CD database file
#
# Track frame offsets:
#	150
#	14967
#	32778
#	48440
#	62792
#	80091
#	95625
#	109875
#	126529
#	141155
#	154934
#	171142
#	186620
#	205258
#	222550
#	238821
#
# Disc length: 3351 seconds
#
# Revision: 0
# Processed by: cddbd v1.5.2PL0 Copyright (c) Steve Scherf et al.
# Submitted via: CDex 1.51
#
DISCID=050d1510
DTITLE=Georg McAnthony - Trail Of Life
DYEAR=2006
DGENRE=Country
TTITLE0=Never Give Up
TTITLE1=Some Never Will
TTITLE2=Walking With Angels
TTITLE3=Trapper Jacket Joe's Family
TTITLE4=Streets Of Gold
TTITLE5=Unknown Heroes
TTITLE6=Trail Of Life
TTITLE7=Seed Of Change
TTITLE8=Lucky Dog
TTITLE9=Gonna Be Mine
TTITLE10=Thankful
TTITLE11=For Any Child
TTITLE12=Quo Vadis USA
TTITLE13=Any Given Day
TTITLE14=Healed By A Song
TTITLE15=The Eyes Of The Ranger
EXTD=YEAR: 2006
EXTT0=
EXTT1=
EXTT2=
EXTT3=
EXTT4=
EXTT5=
EXTT6=
EXTT7=
EXTT8=
EXTT9=
EXTT10=
EXTT11=
EXTT12=
EXTT13=
EXTT14=
EXTT15=
PLAYORDER=
